<?xml version="1.0" encoding="utf-8"?>
<!-- Svg Vector Icons : http://www.onlinewebfonts.com/icon -->
<!DOCTYPE svg PUBLIC "-//W3C//DTD SVG 1.1//EN" "http://www.w3.org/Graphics/SVG/1.1/DTD/svg11.dtd">
<svg version="1.1" xmlns="http://www.w3.org/2000/svg" xmlns:xlink="http://www.w3.org/1999/xlink" x="0px" y="0px" viewBox="0 0 1000 1000" enable-background="new 0 0 1000 1000" xml:space="preserve">
<metadata> Svg Vector Icons : http://www.onlinewebfonts.com/icon </metadata>
<g><path d="M950.7,117.7L882,48.9c-52.3-52.3-137.2-52.3-189.5,0l-49.6,49.6l258.3,258.3l49.6-49.6C1003.1,254.9,1003.1,170,950.7,117.7z M230.2,768.3v-69.6l-93.8-93.8l-6.8,6.8c-21.6,21.6-34.2,48.7-38,76.7l-19.9,67.9l-13.6,8.1L10,990.3l255.5-44.7l13-24.5l82.5-25.9l1.5-5.2c9-5.5,17.6-12.1,25.4-19.9l6.8-6.8l-95-94.9H230.2z M174.1,567.3l56.1,56.1v-0.5h44.7v100.7h100.7v44.7h-0.5l57.3,57.3L872,386L613.6,127.7L174.1,567.3z"/></g>
</svg>